<mxfile host="app.diagrams.net" modified="2024-03-25T03:52:36.752Z" agent="Mozilla/5.0 (Windows NT 10.0; Win64; x64) AppleWebKit/537.36 (KHTML, like Gecko) Chrome/123.0.0.0 Safari/537.36" version="24.1.0" etag="fZjh9_PZsZD5X1bYz-mm" type="device">
  <diagram id="afvy8yenNYpTmCzGF0Mq" name="Page-1">
    <mxGraphModel dx="1050" dy="565" grid="0" gridSize="10" guides="1" tooltips="1" connect="1" arrows="1" fold="1" page="1" pageScale="1" pageWidth="850" pageHeight="1100" math="0" shadow="0">
      <root>
        <mxCell id="0" />
        <mxCell id="1" parent="0" />
        <mxCell id="E9MyollbY7yWRJsV7sy0-1" value="" style="rounded=0;whiteSpace=wrap;html=1;" vertex="1" parent="1">
          <mxGeometry x="350" y="150" width="170" height="240" as="geometry" />
        </mxCell>
        <mxCell id="E9MyollbY7yWRJsV7sy0-2" value="&lt;b&gt;Personal Information&lt;/b&gt;" style="ellipse;whiteSpace=wrap;html=1;fillColor=#dae8fc;strokeColor=#6c8ebf;" vertex="1" parent="1">
          <mxGeometry x="367.5" y="170" width="135" height="60" as="geometry" />
        </mxCell>
        <mxCell id="E9MyollbY7yWRJsV7sy0-3" value="&lt;b&gt;Activity history&lt;/b&gt;" style="ellipse;whiteSpace=wrap;html=1;fillColor=#dae8fc;strokeColor=#6c8ebf;" vertex="1" parent="1">
          <mxGeometry x="367.5" y="240" width="135" height="60" as="geometry" />
        </mxCell>
        <mxCell id="E9MyollbY7yWRJsV7sy0-4" value="&lt;b&gt;Achievement and Badges&lt;/b&gt;" style="ellipse;whiteSpace=wrap;html=1;fillColor=#dae8fc;strokeColor=#6c8ebf;" vertex="1" parent="1">
          <mxGeometry x="367.5" y="310" width="135" height="60" as="geometry" />
        </mxCell>
        <mxCell id="E9MyollbY7yWRJsV7sy0-5" value="Contestant" style="shape=umlActor;verticalLabelPosition=bottom;verticalAlign=top;html=1;outlineConnect=0;fillColor=#dae8fc;strokeColor=#6c8ebf;" vertex="1" parent="1">
          <mxGeometry x="200" y="170" width="30" height="60" as="geometry" />
        </mxCell>
        <mxCell id="E9MyollbY7yWRJsV7sy0-6" value="Problem-Setter" style="shape=umlActor;verticalLabelPosition=bottom;verticalAlign=top;html=1;outlineConnect=0;fillColor=#dae8fc;strokeColor=#6c8ebf;" vertex="1" parent="1">
          <mxGeometry x="200" y="300" width="30" height="60" as="geometry" />
        </mxCell>
        <mxCell id="E9MyollbY7yWRJsV7sy0-7" value="" style="edgeStyle=orthogonalEdgeStyle;rounded=0;orthogonalLoop=1;jettySize=auto;html=1;" edge="1" parent="1">
          <mxGeometry relative="1" as="geometry">
            <Array as="points">
              <mxPoint x="160" y="212.5" />
              <mxPoint x="160" y="327.5" />
            </Array>
            <mxPoint x="188" y="212.5" as="sourcePoint" />
            <mxPoint x="188" y="327.5" as="targetPoint" />
          </mxGeometry>
        </mxCell>
        <mxCell id="E9MyollbY7yWRJsV7sy0-8" value="IS-A" style="text;html=1;align=center;verticalAlign=middle;whiteSpace=wrap;rounded=0;" vertex="1" parent="1">
          <mxGeometry x="100" y="255" width="60" height="30" as="geometry" />
        </mxCell>
        <mxCell id="E9MyollbY7yWRJsV7sy0-9" value="" style="endArrow=none;html=1;rounded=0;entryX=0;entryY=0.5;entryDx=0;entryDy=0;" edge="1" parent="1" target="E9MyollbY7yWRJsV7sy0-2">
          <mxGeometry width="50" height="50" relative="1" as="geometry">
            <mxPoint x="231" y="208" as="sourcePoint" />
            <mxPoint x="281" y="158" as="targetPoint" />
          </mxGeometry>
        </mxCell>
        <mxCell id="E9MyollbY7yWRJsV7sy0-14" value="" style="endArrow=none;html=1;rounded=0;exitX=0;exitY=0.5;exitDx=0;exitDy=0;" edge="1" parent="1" source="E9MyollbY7yWRJsV7sy0-3">
          <mxGeometry width="50" height="50" relative="1" as="geometry">
            <mxPoint x="182" y="258" as="sourcePoint" />
            <mxPoint x="232" y="208" as="targetPoint" />
          </mxGeometry>
        </mxCell>
        <mxCell id="E9MyollbY7yWRJsV7sy0-15" value="" style="endArrow=none;html=1;rounded=0;exitX=0;exitY=0.5;exitDx=0;exitDy=0;" edge="1" parent="1" source="E9MyollbY7yWRJsV7sy0-4">
          <mxGeometry width="50" height="50" relative="1" as="geometry">
            <mxPoint x="182" y="259" as="sourcePoint" />
            <mxPoint x="232" y="209" as="targetPoint" />
          </mxGeometry>
        </mxCell>
      </root>
    </mxGraphModel>
  </diagram>
</mxfile>
